<?xml version="1.0" standalone="no"?>
<!DOCTYPE svg PUBLIC "-//W3C//DTD SVG 20010904//EN"
 "http://www.w3.org/TR/2001/REC-SVG-20010904/DTD/svg10.dtd">
<svg version="1.0" xmlns="http://www.w3.org/2000/svg"
 width="647.000000pt" height="263.000000pt" viewBox="0 0 647.000000 263.000000"
 preserveAspectRatio="xMidYMid meet">

<g transform="translate(0.000000,263.000000) scale(0.100000,-0.100000)"
fill="#000000" stroke="none">
<path d="M0 1315 l0 -1315 3235 0 3235 0 0 1315 0 1315 -3235 0 -3235 0 0
-1315z m2824 1211 c38 -16 73 -50 88 -86 16 -37 9 -111 -12 -147 l-19 -33 27
-14 c15 -8 41 -16 57 -19 17 -3 71 -16 122 -29 l91 -24 219 42 c568 110 519
103 525 69 4 -20 1 -28 -16 -35 -25 -10 -187 -55 -236 -65 -71 -15 -22 4 108
40 86 25 132 42 132 51 0 8 -6 14 -14 14 -22 0 -210 -33 -491 -85 -137 -26
-265 -49 -284 -52 -31 -6 -33 -8 -28 -39 3 -19 2 -36 -2 -39 -10 -6 -106 -33
-181 -50 -112 -27 -206 -57 -236 -76 -75 -46 -85 -161 -21 -229 82 -87 238
-38 254 79 7 49 -12 108 -44 137 -26 24 -24 44 6 44 10 0 37 6 62 14 24 8 132
38 239 66 107 28 250 67 317 86 67 19 128 34 135 33 16 -1 -11 -10 -114 -40
-43 -12 -78 -25 -78 -28 0 -4 21 -13 47 -21 26 -7 42 -15 36 -17 -6 -2 -36 5
-67 16 -53 18 -59 19 -114 4 -64 -18 -102 -43 -64 -43 12 0 22 -5 22 -10 0 -7
-10 -7 -27 -3 -16 5 -46 8 -68 7 -42 -1 -304 -70 -318 -84 -5 -4 3 -24 17 -45
72 -106 -5 -255 -132 -255 -102 0 -186 97 -168 194 l5 31 -28 -34 c-16 -18
-41 -68 -55 -110 -17 -50 -24 -63 -20 -37 16 110 97 227 186 269 26 12 376
107 395 107 2 0 3 10 3 23 0 28 -17 47 -42 47 -10 0 -18 4 -18 10 0 5 9 6 22
1 24 -9 68 -3 68 10 0 8 -10 12 -160 49 -46 12 -88 24 -93 27 -5 3 0 15 11 27
48 53 55 117 19 181 -30 53 -77 77 -140 72 -81 -7 -135 -67 -137 -150 0 -71
58 -141 128 -152 82 -14 192 -38 188 -42 -4 -5 -150 21 -217 38 -20 5 -51 24
-68 41 -126 129 16 334 183 264z m-20 -60 c62 -26 74 -123 19 -166 -38 -29
-65 -34 -107 -16 -75 31 -82 134 -12 177 37 23 56 24 100 5z m191 -296 c25
-11 -1 -11 -35 0 -20 6 -21 8 -5 8 11 0 29 -3 40 -8z m198 -44 c8 -21 -16 -39
-31 -24 -7 7 -12 18 -12 25 0 18 36 17 43 -1z m404 -73 c29 -9 53 -20 53 -25
0 -9 -23 -2 -100 30 -39 17 -12 14 47 -5z m-187 -18 c26 -28 83 -37 60 -10
-21 25 5 17 30 -10 26 -28 56 -34 46 -10 -8 22 10 19 26 -4 8 -11 27 -23 43
-27 26 -6 28 -5 18 8 -24 29 0 27 34 -2 36 -32 76 -43 53 -15 -19 23 -1 18 32
-10 16 -14 38 -25 49 -25 16 0 17 3 7 19 -11 18 -49 41 -67 41 -16 0 -83 31
-78 36 3 3 54 -10 114 -30 144 -46 143 -46 143 -65 -1 -45 -7 -44 -301 25
-156 36 -292 67 -301 67 -20 1 -25 17 -5 17 6 0 27 -4 45 -9 30 -9 31 -8 22
10 -15 27 2 24 30 -6z m-591 -131 c17 -14 31 -31 31 -37 0 -7 -5 -4 -11 6 -17
29 -67 46 -103 36 -83 -23 -91 -130 -13 -164 25 -11 27 -14 11 -15 -24 0 -69
45 -77 79 -13 54 42 121 100 121 19 0 43 -10 62 -26z m38 -90 c-8 -47 -42 -84
-76 -83 -22 1 -23 2 -6 7 47 16 75 50 75 91 0 12 3 21 6 21 4 0 4 -16 1 -36z
m-310 -675 c15 -6 38 -19 49 -30 l22 -20 6 26 c6 24 10 26 54 23 l47 -3 3
-102 3 -103 -51 0 c-52 0 -53 1 -64 51 -3 14 -17 31 -31 39 -40 22 -76 4 -104
-53 -29 -60 -23 -123 17 -168 43 -48 99 -49 205 -4 15 6 17 0 17 -63 0 -44 -5
-73 -12 -79 -26 -21 -90 -34 -161 -35 -128 -2 -222 60 -258 169 -18 54 -7 189
19 240 46 90 159 143 239 112z m2322 0 c114 -24 186 -123 185 -254 0 -88 -16
-137 -63 -188 -49 -55 -107 -79 -189 -79 -113 0 -186 42 -229 131 -24 47 -28
69 -28 137 0 66 5 89 25 128 31 61 85 105 147 122 61 16 89 17 152 3z m-3073
-21 c38 -21 57 -63 56 -124 -1 -55 -22 -91 -57 -100 -30 -8 -31 -15 -4 -32 24
-15 49 -70 49 -107 0 -22 4 -25 36 -25 l35 0 -3 -52 -3 -53 -85 -3 c-80 -3
-88 -1 -108 21 -18 19 -24 41 -29 96 -7 81 -20 101 -64 101 -29 0 -29 -1 -29
-55 0 -52 1 -55 25 -55 24 0 25 -3 25 -55 l0 -55 -135 0 -135 0 0 54 c0 49 2
55 23 58 21 3 22 6 25 146 l3 142 -26 0 c-24 0 -25 3 -25 53 0 30 3 57 8 61 4
4 93 6 197 4 154 -3 196 -6 221 -20z m424 -38 c0 -58 -1 -60 -25 -60 l-26 0 3
-142 c3 -140 4 -143 26 -146 20 -3 22 -9 22 -58 l0 -55 -132 3 -133 3 -3 52
c-3 50 -2 52 25 55 l28 3 3 142 3 142 -28 3 c-25 3 -28 7 -31 47 -5 72 -8 71
138 71 l130 0 0 -60z m948 43 c5 -10 33 -102 62 -205 49 -176 54 -188 76 -188
22 0 24 -4 24 -55 l0 -55 -145 0 -145 0 0 55 c0 48 2 55 20 55 12 0 20 7 20
18 0 35 -15 43 -71 40 -51 -3 -54 -5 -57 -30 -3 -24 0 -28 22 -28 25 0 26 -3
26 -55 l0 -56 -112 3 -113 3 1 50 c1 40 5 51 20 53 11 2 23 7 27 11 7 7 87
257 87 274 0 4 -13 7 -30 7 l-30 0 0 60 0 60 155 0 c137 0 155 -2 163 -17z
m646 -6 c61 -40 74 -159 23 -203 -14 -12 -32 -24 -39 -27 -9 -3 -5 -12 14 -30
26 -24 34 -44 40 -97 2 -20 9 -26 36 -28 32 -3 32 -4 32 -58 l0 -54 -84 0
c-114 0 -125 9 -135 114 -8 86 -24 109 -71 104 -23 -3 -25 -7 -25 -53 0 -46 2
-50 26 -53 24 -3 26 -6 25 -55 l-1 -52 -129 -3 c-73 -1 -134 2 -139 7 -5 5 -7
29 -3 55 6 36 11 45 29 48 21 3 22 7 25 146 l3 142 -25 0 c-19 0 -26 7 -31 30
-4 17 -4 44 0 61 l7 31 197 -4 c170 -3 201 -5 225 -21z m452 12 c90 -16 145
-53 179 -123 24 -50 27 -64 24 -139 -5 -108 -37 -164 -119 -211 -55 -31 -56
-31 -227 -34 l-173 -4 0 55 c0 50 2 56 23 59 21 3 22 6 25 146 l3 142 -26 0
c-24 0 -25 2 -25 60 l0 60 127 0 c69 0 155 -5 189 -11z m-1802 -865 c9 -8 16
-23 15 -32 0 -12 -3 -11 -9 6 -7 16 -18 22 -40 22 -25 0 -30 -4 -30 -25 0 -22
4 -25 33 -25 57 0 76 -72 22 -86 -53 -13 -60 -5 -63 79 l-3 77 30 0 c16 0 37
-7 45 -16z m194 -11 c6 -16 20 -52 31 -80 12 -29 17 -53 12 -53 -5 0 -12 11
-15 25 -5 21 -12 25 -45 25 -31 0 -40 -5 -50 -26 -6 -15 -14 -25 -16 -22 -7 7
56 158 65 158 5 0 13 -12 18 -27z m216 11 c20 -20 20 -33 0 -55 -17 -19 -16
-27 12 -69 12 -18 9 -17 -10 5 -14 17 -26 33 -26 38 0 4 -11 7 -24 7 -21 0
-25 -5 -29 -37 -2 -21 -4 -1 -5 45 l-2 82 34 0 c19 0 42 -7 50 -16z m188 5
c16 -8 19 -17 14 -40 -3 -17 0 -38 6 -49 17 -27 -14 -60 -59 -60 l-33 0 0 80
c0 79 0 80 26 80 14 0 34 -5 46 -11z m198 1 c0 -6 -6 -10 -12 -9 -43 5 -58 -2
-58 -26 0 -21 5 -25 30 -25 17 0 30 -4 30 -10 0 -5 -14 -10 -31 -10 -27 0 -30
-3 -27 -27 2 -23 9 -29 38 -34 l35 -6 -42 -2 -43 -1 0 80 0 80 40 0 c22 0 40
-5 40 -10z m194 -73 c29 -74 33 -97 10 -54 -12 21 -22 27 -50 27 -28 0 -36 -5
-44 -25 -12 -33 -24 -32 -16 0 13 51 57 138 65 129 4 -5 20 -39 35 -77z m200
61 c14 -19 14 -24 -1 -48 -14 -25 -14 -29 2 -54 10 -15 15 -29 12 -32 -2 -3
-15 11 -27 30 -28 47 -57 48 -63 4 -2 -20 -4 -11 -5 22 0 30 2 49 5 43 2 -7
20 -13 40 -13 30 0 34 3 31 23 -2 16 -11 23 -32 25 -16 2 -32 -2 -37 -10 -6
-9 -9 -7 -9 10 0 19 5 22 34 22 24 0 39 -7 50 -22z m151 -58 c0 -47 -4 -80
-10 -80 -6 0 -10 33 -10 80 0 47 4 80 10 80 6 0 10 -33 10 -80z m183 53 c5
-16 19 -52 31 -80 11 -29 16 -53 11 -53 -5 0 -12 11 -16 25 -5 21 -12 25 -45
25 -33 0 -41 -4 -49 -25 -18 -48 -19 -24 -1 28 32 89 40 107 50 107 5 0 13
-12 19 -27z"/>
<path d="M2713 2450 c-31 -19 -52 -72 -40 -102 2 -7 5 -17 5 -22 1 -15 53 -36
87 -36 25 0 40 8 59 31 14 17 26 39 26 50 0 32 -26 74 -55 87 -35 16 -45 15
-82 -8z"/>
<path d="M3165 2120 c-3 -5 -1 -10 4 -10 6 0 11 5 11 10 0 6 -2 10 -4 10 -3 0
-8 -4 -11 -10z"/>
<path d="M3844 1934 c29 -25 56 -29 63 -7 3 7 -12 16 -34 22 -56 16 -61 13
-29 -15z"/>
<path d="M4753 1003 c-26 -39 -30 -161 -8 -219 30 -79 91 -68 114 21 20 80 9
176 -25 210 -24 24 -61 19 -81 -12z"/>
<path d="M1590 965 l0 -55 35 0 c39 0 75 28 75 58 0 29 -33 52 -73 52 l-37 0
0 -55z"/>
<path d="M2993 940 l-21 -70 39 0 c25 0 39 5 39 13 0 15 -27 118 -33 123 -2 2
-13 -27 -24 -66z"/>
<path d="M3600 965 c0 -54 0 -55 29 -55 16 0 41 4 55 10 21 8 26 16 26 44 0
41 -20 56 -74 56 l-36 0 0 -55z"/>
<path d="M4168 880 c-2 -87 1 -141 7 -143 12 -4 44 4 68 19 21 12 46 76 47
119 1 79 -43 145 -96 145 -23 0 -23 -1 -26 -140z"/>
<path d="M2402 163 c2 -22 9 -29 29 -31 29 -3 54 20 45 43 -3 9 -18 15 -41 15
-34 0 -36 -2 -33 -27z"/>
<path d="M2626 228 c-9 -35 -8 -38 14 -38 11 0 20 3 20 8 0 19 -13 52 -20 52
-4 0 -10 -10 -14 -22z"/>
<path d="M2800 235 c0 -24 3 -26 38 -23 29 2 37 7 37 23 0 16 -8 21 -37 23
-35 3 -38 1 -38 -23z"/>
<path d="M3000 235 c0 -24 3 -26 33 -23 24 2 32 8 32 23 0 15 -8 21 -32 23
-30 3 -33 1 -33 -23z"/>
<path d="M3002 163 c2 -22 9 -29 29 -31 29 -3 54 20 45 43 -3 9 -18 15 -41 15
-34 0 -36 -2 -33 -27z"/>
<path d="M3400 226 c-13 -36 -14 -36 16 -36 22 0 24 3 19 23 -12 37 -24 42
-35 13z"/>
<path d="M3952 225 c-15 -33 -16 -32 13 -37 26 -5 29 1 19 40 -8 29 -18 28
-32 -3z"/>
</g>
</svg>
